PathFileType	4	(X/Y/Z)	D:\TRACE\v60_Jaco2_6-2-23\BothDRS_Motion3_3-v60.trc
DataRate	CameraRate	NumFrames	NumMarkers	Units	OrigDataRate	OrigDataStartFrame	OrigNumFrames
100.00	100.00	      34	9	mm	100.00	6126	      7000
Frame#	Time	front left toe			Front right toe			aft left toe			aft right toe			Arm			FL body			FR body			AL Body			AR Body			
		X1	Y1	Z1	X2	Y2	Z2	X3	Y3	Z3	X4	Y4	Z4	X5	Y5	Z5	X6	Y6	Z6	X7	Y7	Z7	X8	Y8	Z8	X9	Y9	Z9	

6126	61.250	-153.81757	33.15847	-121.54522	231.27330	15.87740	-125.50479	-166.81104	5.48601	483.35767	191.07536	12.55942	514.63422	120.12688	1124.86121	-427.13351	-25.78075	523.38733	-298.93112	132.72028	516.01733	-291.26514	-62.40385	543.25269	644.70819	88.32719	526.65729	651.44354	
6127	61.260	-154.26611	27.57184	-121.70720	231.39908	15.71913	-125.56030	-166.76195	5.64382	483.17044	190.67690	6.56844	514.43524	120.57915	1124.44128	-426.48135	-25.66296	523.17352	-298.70874	132.23126	515.67651	-290.58865	-63.12739	543.15918	645.07190	87.51833	526.57874	651.97797	
6128	61.270	-155.23172	22.01475	-122.08147	231.43364	15.56362	-125.71651	-166.73509	5.85588	482.86694	190.95418	7.66776	512.32703	120.65308	1124.03833	-425.96161	-25.54371	522.90125	-298.38028	132.19504	515.53638	-290.32391	-64.06722	543.09290	645.27838	86.66374	526.61377	652.23669	
6129	61.280	-155.46730	19.30496	-123.39699	231.70230	15.44468	-125.71163	-166.90376	6.35955	482.75223	192.05011	5.27978	513.56512	120.61057	1123.93384	-425.41223	-25.17522	522.08789	-297.82846	132.39754	515.09790	-289.97272	-64.78434	543.89709	645.52814	86.16722	527.28949	652.39587	
6130	61.290	-156.29152	19.65864	-124.52612	231.92862	15.44430	-125.67295	-166.88625	7.11127	482.41931	192.39960	6.66752	513.00000	120.65176	1124.20081	-424.91000	-25.05322	521.67377	-297.60358	132.67027	514.72272	-289.35507	-66.21758	545.26044	645.61469	84.64171	529.23151	653.11719	
6131	61.300	-156.36786	17.89629	-123.62720	231.91467	15.97103	-125.23000	-166.52321	8.21837	482.62451	191.54263	6.81319	513.75110	120.58599	1124.69019	-424.86801	-25.00943	522.10004	-297.40137	132.90433	515.01544	-288.55374	-67.06042	546.69165	646.13251	82.93851	530.30896	653.51447	
6132	61.310	-155.56963	16.74710	-122.74020	231.25783	19.49453	-125.77274	-166.23247	10.19226	482.59543	191.10802	6.49149	514.27032	120.41143	1125.05371	-425.06287	-24.93767	523.07227	-296.96585	133.21898	515.84058	-287.98346	-67.95181	547.19165	646.41052	81.71783	531.13251	654.04694	
6133	61.320	-155.56192	16.87169	-123.27052	226.92953	23.03096	-122.82425	-163.40845	12.89227	484.47357	191.60086	6.23254	513.32477	120.19406	1125.11255	-424.63782	-24.69040	523.81982	-296.73691	133.18573	516.91370	-287.82928	-68.99396	547.08612	646.59363	81.25481	531.52576	654.77075	
6134	61.330	-155.65733	17.51644	-124.33463	224.36212	26.89906	-119.73178	-159.59241	19.82404	485.45972	192.14456	6.79637	513.81354	120.55555	1125.70288	-423.75195	-24.34556	524.45166	-296.39096	133.86325	517.26361	-287.66833	-70.12787	547.49036	646.51788	80.88515	531.57495	654.69458	
6135	61.340	-155.56764	16.71533	-124.16397	223.53819	37.57359	-119.15571	-157.10133	28.19780	486.58582	192.24661	7.00875	513.59247	120.78613	1126.87085	-422.56491	-24.50817	524.20038	-296.27344	133.06758	517.13055	-287.31924	-70.48506	548.13208	646.71167	80.37204	532.04376	654.75458	
6136	61.350	-155.22002	15.86964	-123.68258	223.86644	46.78474	-118.02658	-155.86627	39.73997	485.80621	192.54448	7.42761	513.65369	121.33640	1128.21973	-421.16779	-25.14668	523.69507	-296.28207	132.23109	516.83521	-287.25397	-70.69945	548.47186	646.91431	79.86097	532.72797	655.21643	
6137	61.360	-155.18039	15.74279	-123.70970	224.90155	59.20250	-118.36259	-158.00551	51.03967	485.59030	192.93721	7.63637	513.68292	121.35119	1129.20874	-419.74582	-25.40906	523.26941	-296.21143	132.28233	516.47211	-287.03162	-70.70570	548.37195	647.06897	79.77650	532.75116	655.28455	
6138	61.370	-155.11583	15.50428	-123.87920	225.67513	70.70760	-118.11037	-161.00369	62.89780	485.21484	193.29239	7.73389	513.56848	121.05463	1129.73694	-418.42346	-25.89749	523.17657	-296.08881	132.19954	516.10370	-286.70538	-70.78409	547.91559	647.21869	79.99190	532.22992	655.12427	
6139	61.380	-155.19681	15.18466	-124.02612	226.31551	82.56882	-118.11289	-164.59370	74.70969	485.24463	193.32843	7.79733	513.53113	120.48168	1129.69348	-417.63055	-26.39135	523.07843	-295.90253	131.84888	516.07324	-286.59830	-70.55466	547.28314	647.47034	80.59795	531.57532	655.25043	
6140	61.390	-155.02187	15.00246	-124.03297	226.76425	94.37601	-117.96098	-167.09807	86.29985	485.42065	193.48701	7.91249	513.42194	119.34714	1129.62305	-416.95694	-26.41365	522.93414	-295.40189	131.24677	516.30548	-286.38284	-70.15824	546.57910	647.71564	80.86076	530.95746	655.73322	
6141	61.400	-154.82127	15.00421	-123.98343	227.09483	105.63596	-117.37743	-168.74052	97.21139	485.55515	193.79587	8.14335	513.38257	118.20507	1129.34729	-416.92850	-26.51824	523.10248	-295.08585	130.84853	516.48132	-286.35025	-69.60006	546.25360	648.37091	81.27729	530.46106	656.04449	
6142	61.410	-154.59340	14.87544	-123.95718	226.44286	115.61722	-117.22852	-169.09572	107.61448	485.89551	194.17657	8.30981	513.29633	117.53392	1129.10107	-416.59351	-26.64460	523.00812	-294.61819	130.83884	516.28265	-286.14273	-68.99628	546.08197	648.60254	81.63863	530.30884	656.30725	
6143	61.420	-154.38039	14.62711	-123.99447	227.07765	125.28677	-116.21095	-168.86534	116.99524	486.96664	194.60916	8.51092	513.35315	116.92163	1129.01245	-416.11411	-27.24554	522.76868	-294.50345	130.92023	515.99432	-285.81409	-68.65203	545.93762	648.77258	81.91384	530.36578	656.46259	
6144	61.430	-154.29025	14.52744	-123.97786	228.39236	133.87082	-115.11008	-168.79530	125.80199	487.15405	194.75311	8.64911	513.19727	116.58175	1129.08118	-415.64465	-27.56421	522.24799	-294.26248	130.66527	515.70691	-285.64093	-68.40360	546.17395	649.00159	82.67382	530.84869	656.74475	
6145	61.440	-154.18407	14.47127	-123.92157	229.49883	141.14346	-114.75457	-168.39999	132.67555	488.06335	194.86488	8.79534	513.10791	116.61842	1129.45801	-414.88831	-27.82908	521.87256	-293.97198	130.07671	515.44861	-285.56464	-67.83121	546.51520	649.41248	82.56905	531.50397	656.85742	
6146	61.450	-153.99121	14.44536	-123.89356	230.36313	144.80066	-113.87868	-169.26241	137.00610	489.34683	195.12343	8.99688	513.08612	116.29720	1129.82202	-414.31427	-27.77078	521.28394	-293.41739	129.61533	515.42474	-285.45801	-67.20249	547.05280	649.79919	83.37177	531.91980	656.99536	
6147	61.460	-153.71861	14.45178	-123.82484	230.99171	145.68318	-112.25167	-170.38153	138.87448	490.75812	195.60924	9.27387	513.11859	116.11084	1130.38513	-413.82849	-28.38642	521.16528	-293.28903	129.57584	515.30658	-285.27615	-66.07166	547.47559	650.16193	84.69929	532.49701	657.21631	
6148	61.470	-153.49599	14.41946	-123.79433	231.57735	143.05338	-110.28738	-171.59601	137.86429	492.46799	195.95631	9.43899	513.05859	115.77788	1130.53992	-413.70694	-28.76808	521.08813	-292.94885	129.37259	515.29095	-285.26190	-65.35450	547.76569	650.51154	84.67171	532.89838	657.31799	
6149	61.480	-153.38603	14.38477	-123.77123	230.63771	138.71811	-109.01406	-171.73914	134.70175	494.72650	196.05923	9.50226	512.96484	115.40516	1130.51587	-413.68234	-29.02973	521.17261	-292.52646	129.23317	515.25690	-285.02963	-64.57875	548.19312	650.91870	85.96578	533.01367	657.48578	
6150	61.490	-153.22641	14.33537	-123.78120	230.07356	133.28653	-108.01003	-171.55954	130.80110	496.77505	196.10715	9.62875	512.81995	115.06342	1130.38782	-413.84436	-28.99267	521.11877	-292.23788	129.34354	515.20007	-284.74060	-63.60976	548.55902	651.32959	87.04086	533.25293	657.55200	
6151	61.500	-153.20374	14.46756	-123.71036	228.16129	126.89850	-107.62392	-170.97084	125.73110	498.54221	196.12646	9.69534	512.75555	115.08479	1130.20190	-413.95618	-29.04923	521.16254	-291.94894	129.09341	515.26154	-284.62805	-63.16665	548.47412	651.42218	88.55831	533.66650	657.98907	
6152	61.510	-152.95879	14.36818	-123.78396	227.57678	120.29400	-107.45792	-170.49788	119.81222	500.01865	196.22321	9.84783	512.69299	115.19894	1130.18604	-413.91595	-29.19239	521.13342	-291.85269	128.71709	515.23157	-284.68887	-62.11515	548.85107	651.66144	88.72308	534.05890	657.89435	
6153	61.520	-152.67812	14.17355	-123.72953	227.73132	113.25568	-107.48920	-170.91225	113.27960	501.07199	196.54562	10.06800	512.53217	115.64820	1130.34473	-413.74771	-29.65673	521.08746	-291.80490	128.15350	515.32703	-284.98978	-60.90316	549.27460	652.06006	89.43085	534.20569	657.69379	
6154	61.530	-152.63185	14.06951	-123.67275	227.91319	105.56329	-107.57857	-170.84453	105.18066	501.90546	197.01817	10.27808	512.39490	116.06863	1130.58167	-413.72403	-30.14293	520.91144	-291.81125	127.88832	515.05096	-285.27838	-59.90247	549.27026	652.13702	90.55392	534.61462	657.84723	
6155	61.540	-152.51828	13.86202	-123.62758	227.64656	97.00681	-107.95370	-170.57947	95.75315	502.75858	197.30763	10.36789	512.32550	116.64135	1130.84753	-413.59668	-30.48843	520.74957	-291.81070	127.49163	514.75854	-285.57944	-59.08905	549.25275	652.04309	91.27934	534.72479	657.58887	
6156	61.550	-152.32294	13.64482	-123.61010	226.98587	87.97358	-108.21054	-170.11266	86.19309	503.56897	197.55769	10.33541	512.17627	117.41196	1130.73962	-413.49289	-30.58135	520.66296	-291.76520	127.49087	514.26422	-285.52972	-58.10530	549.24548	651.87750	92.41962	534.60205	657.24738	
6157	61.560	-152.14236	13.57741	-123.59325	226.44388	78.47268	-108.74626	-169.17616	76.72915	503.63443	197.87242	10.36270	512.14905	118.11022	1130.60095	-413.67892	-30.52593	520.57605	-291.86392	127.42711	514.26996	-285.72070	-57.07246	549.31195	651.87048	93.14740	534.52606	657.01477	
6158	61.570	-152.03802	13.60865	-123.63711	225.85852	68.92548	-109.35753	-167.77034	67.61834	503.16833	198.18193	10.44127	512.15906	118.70213	1130.38977	-414.21252	-30.51368	520.61639	-292.05881	127.43407	514.23749	-286.20554	-56.02027	549.49750	651.90906	94.34400	534.45416	656.85156	
6159	61.580	-151.94231	13.59228	-123.71111	225.45856	59.83652	-110.25575	-167.69427	58.82738	502.77551	198.25887	10.43230	512.10974	119.72209	1129.87012	-414.75723	-30.43675	520.50964	-292.32858	127.69308	514.13452	-286.41168	-55.27567	549.35303	651.52313	95.37141	534.45514	656.63422	
